<?xml version="1.0" standalone="no"?>
<svg xmlns="http://www.w3.org/2000/svg" viewBox="0 0 174.912 36" width="174.912" height="36"><g fill="#00936f" color="#00936f" transform="translate(0 4.5) scale(0.5)"><svg width="56.0" height="54.0" x="0.0" y="0.0" viewBox="0 0 56 54"><path fill="currentColor" fill-rule="evenodd" d="M15.043 44.48a1.97 1.97 0 0 1 1.402.585c1.19 1.189 1.108 2.922.997 5.322-.03.622-.059 1.26-.068 1.932-.672.009-1.309.039-1.928.067-.64.03-1.245.058-1.808.058-1.477 0-2.64-.18-3.516-1.056-.766-.765-.781-1.996-.035-2.742.387-.387.75-.552 1.21-.552.341 0 .76.088 1.318.279a.64.64 0 0 0 .813-.813c-.44-1.288-.376-1.879.273-2.528a1.885 1.885 0 0 1 1.342-.552zm13.805-29.1h.081c.179.002.36.006.54.012l.174.006c.159.006.318.015.478.024l.19.01c.216.015.433.03.652.05 2.068.187 4.174.617 6.26 1.278.999.317 1.994.687 2.96 1.101C50.96 22.48 57.26 31.996 54.227 39.074c-1.45 3.382-4.821 5.721-9.493 6.586-4.767.884-10.29.127-15.554-2.129-3.232-1.385-6.18-3.271-8.58-5.486.17-.077.34-.157.51-.238l.035-.016c.216-.103.432-.21.647-.32l.19-.1a27.935 27.935 0 0 0 1.19-.653l.126-.072c.212-.124.423-.252.633-.383l.158-.1c.16-.1.32-.202.478-.306l.2-.132.168-.112.23.194.085.072c.115.095.231.19.35.283l.028.022c.108.085.216.17.327.254l.114.085.25.185.14.1c.076.054.153.11.232.164l.152.104c.076.052.151.104.228.154l.161.106a30.424 30.424 0 0 0 .62.392 24.018 24.018 0 0 0 .403.24l.176.102.233.132.178.098.239.13c.06.03.118.062.178.093l.247.127.175.089.26.127.167.08c.096.046.192.09.289.135l.143.066a27.417 27.417 0 0 0 1.068.452c.064.026.129.05.193.075a26.753 26.753 0 0 0 1.13.407l.179.06c.208.067.416.132.625.194l.168.047c.153.045.306.087.459.128l.26.067.367.09.285.066a24.508 24.508 0 0 0 .805.162c.126.024.254.047.38.068l.372.057c.077.011.153.023.23.033.129.018.257.034.385.049l.202.022c.135.015.27.029.403.04l.128.01c.307.024.612.042.914.051l.05.002c.124.004.248.005.371.006l.15.002h.099a16.884 16.884 0 0 0 .736-.02c.062-.003.123-.008.185-.012.128-.008.255-.017.381-.028l.188-.016c.155-.015.308-.033.46-.053l.105-.012c3.158-.43 5.48-1.795 6.616-3.865l.01-.017c.038-.07.075-.142.11-.215l.024-.046a6.18 6.18 0 0 0 .114-.25c1.014-2.366.46-5.21-1.56-8.006-1.95-2.7-5.057-5.06-8.748-6.64a24.987 24.987 0 0 0-2.408-.888c-2.171-.676-4.308-1.017-6.347-1.006-4.404.018-7.752 1.712-8.96 4.53a6.01 6.01 0 0 0-.12.305c-.013.034-.023.068-.035.102a6.123 6.123 0 0 0-.069.208l-.035.125a5.96 5.96 0 0 0-.051.19l-.03.136a6.085 6.085 0 0 0-.064.326l-.028.185a6.442 6.442 0 0 0-.046.479l-.008.188-.004.148.002.195.004.145c.003.068.008.137.013.206.003.046.005.091.01.137.006.077.016.155.025.232l.014.114c.016.116.035.232.056.349l.009.043c.02.103.041.206.065.31l.03.122.06.233.043.141c.021.072.042.144.066.216l.05.15c.016.047.03.093.048.14l-.236.143-.049.03c-.113.068-.226.134-.34.2l-.07.04-.265.146-.11.06a19.2 19.2 0 0 1-.575.297l-.112.055-.26.124-.076.035c-.113.052-.226.103-.34.152-.018.009-.037.016-.056.024-.093.04-.186.08-.279.118l-.108.043-.229.09a14.038 14.038 0 0 1-.342.126c-.038.014-.076.028-.114.04-.082.03-.163.057-.244.083l-.09.03c-.11.035-.221.07-.332.103l-.03.008c-.1.03-.199.057-.298.084l-.103.026-.151.038-.059-.118-.073-.152-.081-.173-.069-.15-.077-.176-.063-.147-.075-.18-.058-.143-.07-.185-.053-.138-.07-.198-.044-.123a13.735 13.735 0 0 1-.076-.231l-.03-.091a12.91 12.91 0 0 1-.097-.32l-.021-.078c-.023-.08-.046-.162-.067-.243-.011-.04-.02-.081-.03-.122l-.05-.197-.03-.134-.04-.184-.028-.14-.034-.177-.024-.143-.029-.174-.02-.143a12.453 12.453 0 0 1-.024-.171l-.017-.145-.019-.168-.013-.146-.013-.166-.01-.145-.008-.164a8.66 8.66 0 0 1-.008-.309l-.001-.145v-.161l.004-.144.006-.16a12.505 12.505 0 0 1 .029-.445l.015-.158.016-.14.02-.158.02-.139a9.64 9.64 0 0 1 .025-.157l.023-.136.03-.157.028-.135.036-.157.03-.13.042-.16.034-.126c.015-.054.032-.108.048-.161l.037-.121c.017-.056.037-.112.055-.167l.038-.113.068-.183.035-.093a8.717 8.717 0 0 1 .312-.707l.03-.058c2.049-4.075 7.16-6.49 13.482-6.447zM9.11 10.965C17.4 2.675 28.576.358 34.02 5.803c2.251 2.25 3.253 5.608 2.855 9.513l-.047-.013c-.058-.017-.118-.032-.176-.05a32.453 32.453 0 0 0-.575-.157l-.257-.066c-.17-.043-.34-.085-.51-.125-.086-.02-.173-.042-.26-.061a31.185 31.185 0 0 0-.558-.122l-.195-.042c-.249-.05-.497-.097-.746-.141l-.169-.028a29.876 29.876 0 0 0-.581-.094l-.256-.037a29.366 29.366 0 0 0-.767-.1l-.155-.018c-.003-.037-.008-.073-.012-.11l-.017-.147a8.068 8.068 0 0 0-.027-.187l-.02-.14a8.548 8.548 0 0 0-.036-.192l-.025-.126a7.806 7.806 0 0 0-.05-.218c-.007-.03-.013-.063-.021-.094a6.942 6.942 0 0 0-.084-.304l-.02-.061a7.029 7.029 0 0 0-.076-.236l-.038-.104a7.798 7.798 0 0 0-.07-.185l-.047-.113a6.39 6.39 0 0 0-.072-.169l-.054-.115a5.824 5.824 0 0 0-.285-.534l-.09-.146-.07-.106a7.599 7.599 0 0 0-.098-.144c-.024-.033-.047-.067-.072-.1-.035-.048-.073-.095-.11-.143l-.035-.045-.036-.045a5.252 5.252 0 0 0-.13-.151c-.02-.024-.04-.049-.062-.072a5.732 5.732 0 0 0-.422-.421l-.05-.045a6.006 6.006 0 0 0-.211-.179l-.016-.013c-1.456-1.166-3.433-1.647-5.729-1.403h-.004c-.097.01-.195.022-.293.035-3.008.386-6.284 1.954-9.227 4.409l-.069.057a25.194 25.194 0 0 0-1.61 1.476 24.685 24.685 0 0 0-2.407 2.791c-1.57 2.127-2.693 4.402-3.249 6.623a12.066 12.066 0 0 0-.383 2.976 8.644 8.644 0 0 0 .262 2.104c.042.164.09.324.143.482a6.25 6.25 0 0 0 1.503 2.452c.095.096.195.186.296.275l.091.077c.077.064.155.127.235.187.031.023.062.048.093.07.106.077.214.151.326.222l.077.046a6.099 6.099 0 0 0 .66.351l.113.053c.12.053.244.102.369.149l.116.04a7.027 7.027 0 0 0 .755.218l.09.022c.141.03.284.057.428.081l.113.016c.114.018.23.032.347.045.042.004.084.01.126.013.142.013.286.024.432.03l.03.002c.133.006.268.009.404.009h.044l.044-.001.064-.001c.158-.003.316-.008.477-.018l.07-.005c.161-.01.324-.025.488-.043l.063-.007c.17-.02.34-.043.512-.07l.036-.006c.182-.03.365-.063.55-.1 2.001-.413 4.132-1.335 6.16-2.666a24.354 24.354 0 0 0 4.168-3.476l.12-.126c.074-.079.15-.157.223-.237l.137-.151.196-.217.143-.164.182-.21.143-.171.173-.208.141-.175.166-.208a28.062 28.062 0 0 0 .298-.388l.134-.181a27.404 27.404 0 0 0 .433-.607 25.92 25.92 0 0 0 .269-.4l.12-.185.139-.217.115-.186a19.271 19.271 0 0 0 .372-.63l.103-.182.125-.232.095-.177c.043-.08.083-.162.125-.243l.084-.167.014-.026c.18.004.353.011.526.02l.112.006c.17.01.342.022.515.037l.094.009c.166.015.333.032.5.052l.057.007c.178.021.356.046.535.072l.115.018c.177.027.355.057.533.09l.086.016c.169.031.339.065.508.1l.072.016.271.06.27.064.116.028c.18.045.36.092.541.141l.02.006c-.07.15-.142.3-.214.45-.02.038-.037.077-.056.115-.096.195-.195.39-.297.584l-.105.195c-.07.13-.139.259-.21.388l-.133.233c-.065.115-.131.231-.198.346l-.148.246c-.066.11-.132.22-.2.33-.051.084-.105.167-.158.251l-.203.32-.168.252-.21.313-.175.252a29.108 29.108 0 0 1-.626.863l-.093.124-.094.123c-.077.101-.156.202-.235.302l-.192.242c-.08.101-.163.201-.245.302l-.195.234-.26.304-.193.225-.28.313-.186.207c-.105.114-.212.227-.318.34l-.161.171a31.791 31.791 0 0 1-4.73 4.065 27.679 27.679 0 0 1-5.402 2.968c-6.186 2.52-11.894 2.009-15.27-1.367-5.445-5.445-3.128-16.62 5.163-24.911zm39.132-8.829c.508 0 .984.196 1.34.551.648.65.712 1.24.272 2.528a.64.64 0 0 0 .813.813c.558-.19.977-.28 1.318-.28.46 0 .823.166 1.21.553.748.747.733 1.978-.033 2.744-.875.875-2.036 1.055-3.51 1.055-.564 0-1.17-.029-1.812-.058a56.52 56.52 0 0 0-1.932-.068c-.009-.67-.039-1.308-.067-1.929-.111-2.4-.192-4.134.998-5.324a1.973 1.973 0 0 1 1.403-.585z"></path></svg></g><path fill="#000000" fill-rule="nonzero" d="M0 19.37L0.77 17.66Q1.22 16.68 3.26 12.19Q5.30 7.70 7.61 2.50L7.61 2.50Q7.85 1.94 7.85 1.51L7.85 1.51Q7.85 1.20 7.68 1.04Q7.51 0.89 7.03 0.89L7.03 0.89Q6.07 0.89 5.40 1.55Q4.73 2.21 4.39 3.22Q4.06 4.22 4.06 5.26L4.06 5.26Q4.06 5.57 4.10 6.00L4.10 6.00Q3.48 6.00 3.16 5.38Q2.83 4.75 2.83 4.03L2.83 4.03Q2.83 3.02 3.55 2.09Q4.27 1.15 5.36 0.58Q6.46 0 7.51 0L7.51 0Q8.35 0 8.87 0.46Q9.38 0.91 9.66 2.09Q9.94 3.26 9.94 5.38L9.94 5.38Q9.94 7.32 9.65 11.21L9.65 11.21Q9.50 13.06 9.43 14.83L9.43 14.83Q10.25 11.69 12.47 7.66Q14.69 3.62 16.27 1.30L16.27 1.30Q16.66 0.72 16.88 0.52Q17.11 0.31 17.47 0.31L17.47 0.31Q17.81 0.31 18.24 0.48L18.24 0.48Q17.64 1.92 17.16 3.84L17.16 3.84Q16.34 7.01 15.66 11.12Q14.98 15.24 14.98 17.40L14.98 17.40Q14.98 17.98 15.02 18.26Q15.07 18.55 15.19 18.89L15.19 18.89L15.34 19.37Q14.52 19.37 14.10 19.10Q13.68 18.84 13.52 18.29Q13.37 17.74 13.37 16.68L13.37 16.68Q13.37 14.11 13.97 11.21Q14.57 8.30 15.77 3.74L15.77 3.74Q14.71 5.11 13.42 7.67Q12.12 10.22 11.00 12.89Q9.89 15.55 9.34 17.21L9.34 17.21Q9.07 17.30 8.98 17.30L8.98 17.30Q8.38 17.30 8.15 16.60Q7.92 15.89 7.92 14.38L7.92 14.38Q7.92 13.03 8.11 9.19L8.11 9.19Q8.30 5.40 8.30 4.18L8.30 4.18Q8.30 3.50 8.26 2.83L8.26 2.83Q6.53 6.84 5.28 9.94L5.28 9.94Q3.62 13.92 2.81 15.72Q1.99 17.52 1.32 18.44Q0.65 19.37 0 19.37L0 19.37ZM22.68 6.91Q22.25 6.91 21.97 6.71Q21.70 6.50 21.70 6.12L21.70 6.12Q21.70 5.64 22.27 5.26Q22.85 4.87 23.45 4.87L23.45 4.87Q24.24 4.87 24.24 5.62L24.24 5.62Q24.24 6.07 23.75 6.49Q23.26 6.91 22.68 6.91L22.68 6.91ZM19.80 17.90Q18.91 17.90 18.43 17.34Q17.95 16.78 17.95 15.89L17.95 15.89Q17.95 14.95 18.49 13.30Q19.03 11.64 19.84 10.39Q20.64 9.14 21.41 9.14L21.41 9.14Q21.62 9.14 21.78 9.29Q21.94 9.43 21.94 9.67L21.94 9.67Q21.94 10.01 21.17 11.28L21.17 11.28Q20.38 12.60 19.91 13.64Q19.44 14.69 19.44 15.62L19.44 15.62Q19.44 16.46 19.72 16.76Q19.99 17.06 20.62 17.06L20.62 17.06Q22.49 17.06 24.31 13.39L24.31 13.39L24.53 13.63Q23.86 15.65 22.55 16.78Q21.24 17.90 19.80 17.90L19.80 17.90ZM26.42 18.62Q25.22 18.62 24.48 17.83Q23.74 17.04 23.74 15.55L23.74 15.55Q23.74 13.99 24.53 12.50Q25.32 11.02 26.56 10.09Q27.79 9.17 28.99 9.17L28.99 9.17Q29.90 9.17 30.30 9.68Q30.70 10.20 30.70 10.94L30.70 10.94Q30.70 11.66 30.37 12.18Q30.05 12.70 29.50 12.70L29.50 12.70Q29.09 12.70 28.80 12.34L28.80 12.34Q29.16 12.17 29.42 11.58Q29.69 10.99 29.69 10.44L29.69 10.44Q29.69 10.13 29.57 9.98Q29.45 9.84 29.16 9.84L29.16 9.84Q28.34 9.84 27.42 10.81Q26.50 11.78 25.86 13.18Q25.22 14.57 25.22 15.72L25.22 15.72Q25.22 16.58 25.63 17.15Q26.04 17.71 26.98 17.71L26.98 17.71Q28.44 17.71 29.87 16.51Q31.30 15.31 32.06 13.37L32.06 13.37L32.38 13.61Q31.82 15.05 30.86 16.19Q29.90 17.33 28.74 17.98Q27.58 18.62 26.42 18.62L26.42 18.62ZM32.74 18.19Q32.30 18.19 32.03 17.45Q31.75 16.70 31.75 15.70L31.75 15.70Q31.75 13.49 33.11 9.74Q34.46 6.00 36.19 3.07Q37.92 0.14 38.93 0.14L38.93 0.14Q39.31 0.14 39.52 0.61Q39.72 1.08 39.72 1.66L39.72 1.66Q39.72 2.78 38.92 4.66Q38.11 6.53 36.83 8.26Q35.54 9.98 34.20 10.80L34.20 10.80Q33.77 11.81 33.54 13.14Q33.31 14.47 33.31 15.53L33.31 15.53Q33.31 15.91 33.36 16.34L33.36 16.34Q34.32 13.56 35.53 11.84Q36.74 10.13 38.23 10.13L38.23 10.13Q39.14 10.13 39.60 10.76Q40.06 11.40 40.06 12.29L40.06 12.29Q40.06 12.82 39.92 13.30Q39.79 13.78 39.50 14.54L39.50 14.54Q39.26 15.19 39.14 15.58Q39.02 15.96 39.02 16.32L39.02 16.32Q39.02 16.78 39.22 17.00Q39.41 17.23 39.74 17.23L39.74 17.23Q40.56 17.23 41.66 16.09Q42.77 14.95 43.49 13.39L43.49 13.39L43.80 13.68Q43.01 15.50 41.77 16.68Q40.54 17.86 39.19 17.86L39.19 17.86Q38.40 17.86 37.97 17.44Q37.54 17.02 37.54 16.34L37.54 16.34Q37.54 15.82 37.90 14.64L37.90 14.64Q38.28 13.34 38.28 12.72L38.28 12.72Q38.28 12.12 38.03 11.84Q37.78 11.57 37.37 11.57L37.37 11.57Q36.48 11.57 35.82 12.61Q35.16 13.66 34.39 15.55L34.39 15.55Q33.82 16.94 33.48 17.57Q33.14 18.19 32.74 18.19L32.74 18.19ZM34.51 9.86Q35.54 9.05 36.56 7.50Q37.58 5.95 38.24 4.43Q38.90 2.90 38.90 2.28L38.90 2.28Q38.90 2.09 38.81 2.09L38.81 2.09Q38.54 2.09 37.72 3.28Q36.89 4.46 35.98 6.26Q35.06 8.06 34.51 9.86L34.51 9.86ZM45.62 18.34Q44.21 18.34 43.45 17.56Q42.70 16.78 42.70 15.55L42.70 15.55Q42.70 14.14 43.63 12.50Q44.57 10.87 46.00 9.76Q47.42 8.64 48.79 8.64L48.79 8.64Q50.28 8.64 50.28 10.10L50.28 10.10Q50.28 11.28 49.39 12.30Q48.50 13.32 47.11 13.97Q45.72 14.62 44.33 14.76L44.33 14.76Q44.23 15.17 44.23 15.62L44.23 15.62Q44.23 16.49 44.66 17.06Q45.10 17.64 46.13 17.64L46.13 17.64Q47.59 17.64 49.08 16.42Q50.57 15.19 51.50 13.39L51.50 13.39L51.79 13.61Q50.83 15.74 49.13 17.04Q47.42 18.34 45.62 18.34L45.62 18.34ZM44.45 14.30Q45.46 13.94 46.56 13.30Q47.66 12.65 48.44 11.77Q49.22 10.90 49.22 9.94L49.22 9.94Q49.22 9.65 49.12 9.52Q49.01 9.38 48.72 9.38L48.72 9.38Q47.98 9.38 47.10 10.13Q46.22 10.87 45.49 12.02Q44.76 13.18 44.45 14.30L44.45 14.30ZM53.02 18Q52.03 18 51.56 17.33Q51.10 16.66 51.10 15.53L51.10 15.53Q51.10 13.37 52.58 9.66Q54.07 5.95 55.91 2.98Q57.74 0 58.56 0L58.56 0Q58.90 0 59.12 0.59Q59.35 1.18 59.35 1.78L59.35 1.78Q59.35 2.88 58.45 5.03Q57.55 7.18 56.09 9.38Q54.62 11.59 52.97 12.96L52.97 12.96Q52.66 14.35 52.66 15.38L52.66 15.38Q52.66 17.23 53.71 17.23L53.71 17.23Q54.60 17.23 55.52 16.10Q56.45 14.98 57.17 13.39L57.17 13.39L57.53 13.58Q55.46 18 53.02 18L53.02 18ZM53.18 12.14Q54.50 10.82 55.76 8.82Q57.02 6.82 57.82 4.98Q58.61 3.14 58.61 2.33L58.61 2.33Q58.61 1.94 58.44 1.94L58.44 1.94Q58.10 1.94 57.06 3.59Q56.02 5.23 54.91 7.61Q53.81 9.98 53.18 12.14L53.18 12.14ZM62.52 19.37L63.29 17.66Q63.74 16.68 65.78 12.19Q67.82 7.70 70.13 2.50L70.13 2.50Q70.37 1.94 70.37 1.51L70.37 1.51Q70.37 1.20 70.20 1.04Q70.03 0.89 69.55 0.89L69.55 0.89Q68.59 0.89 67.92 1.55Q67.25 2.21 66.91 3.22Q66.58 4.22 66.58 5.26L66.58 5.26Q66.58 5.57 66.62 6.00L66.62 6.00Q66 6.00 65.68 5.38Q65.35 4.75 65.35 4.03L65.35 4.03Q65.35 3.02 66.07 2.09Q66.79 1.15 67.88 0.58Q68.98 0 70.03 0L70.03 0Q70.87 0 71.39 0.46Q71.90 0.91 72.18 2.09Q72.46 3.26 72.46 5.38L72.46 5.38Q72.46 7.32 72.17 11.21L72.17 11.21Q72.02 13.06 71.95 14.83L71.95 14.83Q72.77 11.69 74.99 7.66Q77.21 3.62 78.79 1.30L78.79 1.30Q79.18 0.72 79.40 0.52Q79.63 0.31 79.99 0.31L79.99 0.31Q80.33 0.31 80.76 0.48L80.76 0.48Q80.16 1.92 79.68 3.84L79.68 3.84Q78.86 7.01 78.18 11.12Q77.50 15.24 77.50 17.40L77.50 17.40Q77.50 17.98 77.54 18.26Q77.59 18.55 77.71 18.89L77.71 18.89L77.86 19.37Q77.04 19.37 76.62 19.10Q76.20 18.84 76.04 18.29Q75.89 17.74 75.89 16.68L75.89 16.68Q75.89 14.11 76.49 11.21Q77.09 8.30 78.29 3.74L78.29 3.74Q77.23 5.11 75.94 7.67Q74.64 10.22 73.52 12.89Q72.41 15.55 71.86 17.21L71.86 17.21Q71.59 17.30 71.50 17.30L71.50 17.30Q70.90 17.30 70.67 16.60Q70.44 15.89 70.44 14.38L70.44 14.38Q70.44 13.03 70.63 9.19L70.63 9.19Q70.82 5.40 70.82 4.18L70.82 4.18Q70.82 3.50 70.78 2.83L70.78 2.83Q69.05 6.84 67.80 9.94L67.80 9.94Q66.14 13.92 65.33 15.72Q64.51 17.52 63.84 18.44Q63.17 19.37 62.52 19.37L62.52 19.37ZM85.20 6.91Q84.77 6.91 84.49 6.71Q84.22 6.50 84.22 6.12L84.22 6.12Q84.22 5.64 84.79 5.26Q85.37 4.87 85.97 4.87L85.97 4.87Q86.76 4.87 86.76 5.62L86.76 5.62Q86.76 6.07 86.27 6.49Q85.78 6.91 85.20 6.91L85.20 6.91ZM82.32 17.90Q81.43 17.90 80.95 17.34Q80.47 16.78 80.47 15.89L80.47 15.89Q80.47 14.95 81.01 13.30Q81.55 11.64 82.36 10.39Q83.16 9.14 83.93 9.14L83.93 9.14Q84.14 9.14 84.30 9.29Q84.46 9.43 84.46 9.67L84.46 9.67Q84.46 10.01 83.69 11.28L83.69 11.28Q82.90 12.60 82.43 13.64Q81.96 14.69 81.96 15.62L81.96 15.62Q81.96 16.46 82.24 16.76Q82.51 17.06 83.14 17.06L83.14 17.06Q85.01 17.06 86.83 13.39L86.83 13.39L87.05 13.63Q86.38 15.65 85.07 16.78Q83.76 17.90 82.32 17.90L82.32 17.90ZM90.53 17.90Q89.71 17.90 89.24 17.47Q88.78 17.04 88.78 16.34L88.78 16.34Q88.78 15.53 89.47 13.99L89.47 13.99Q89.78 13.20 89.94 12.73Q90.10 12.26 90.10 11.86L90.10 11.86Q90.10 11.26 89.82 10.91Q89.54 10.56 89.21 10.33Q88.87 10.10 88.75 10.03L88.75 10.03Q88.22 11.38 87.62 12.66Q87.02 13.94 86.62 14.64L86.62 14.64L86.40 14.23Q87.55 12 88.34 9.67L88.34 9.67Q88.10 9.43 88.10 9.10L88.10 9.10Q88.10 8.66 88.28 8.28Q88.46 7.90 88.72 7.68Q88.97 7.46 89.11 7.46L89.11 7.46Q89.45 7.46 89.45 8.04L89.45 8.04Q89.45 8.14 89.33 8.47Q89.21 8.81 89.18 8.93L89.18 8.93Q89.18 9.17 89.39 9.37Q89.59 9.58 90.05 9.89L90.05 9.89Q90.79 10.42 91.21 10.93Q91.63 11.45 91.63 12.26L91.63 12.26Q91.63 12.79 91.46 13.31Q91.30 13.82 90.96 14.66L90.96 14.66Q90.43 15.82 90.43 16.32L90.43 16.32Q90.43 17.04 91.15 17.04L91.15 17.04Q91.87 17.04 92.70 16.46Q93.53 15.89 94.22 15.04Q94.92 14.18 95.23 13.46L95.23 13.46L95.54 13.70Q94.80 15.36 93.38 16.63Q91.97 17.90 90.53 17.90L90.53 17.90ZM95.88 18.41Q95.09 18.41 94.60 17.89Q94.10 17.38 94.10 16.42L94.10 16.42Q94.10 15 95.12 13.25Q96.14 11.50 97.70 10.27Q99.26 9.05 100.75 9.05L100.75 9.05Q101.69 9.05 102.31 9.55Q102.94 10.06 102.94 10.85L102.94 10.85Q102.94 11.40 102.62 11.64Q102.31 11.88 101.76 11.88L101.76 11.88Q101.88 11.45 101.88 11.04L101.88 11.04Q101.88 10.44 101.59 10.07Q101.30 9.70 100.70 9.70L100.70 9.70Q99.65 9.70 98.48 10.87Q97.32 12.05 96.54 13.68Q95.76 15.31 95.76 16.49L95.76 16.49Q95.76 17.42 96.41 17.42L96.41 17.42Q97.37 17.42 98.66 15.90Q99.96 14.38 101.45 12.19L101.45 12.19Q101.76 12.24 102.08 12.40Q102.41 12.55 102.41 12.79L102.41 12.79Q102.41 12.98 102.18 13.40Q101.95 13.82 101.90 13.90L101.90 13.90Q101.50 14.59 101.26 15.13Q101.02 15.67 101.02 16.13L101.02 16.13Q101.02 16.54 101.22 16.86Q101.42 17.18 101.83 17.18L101.83 17.18Q102.53 17.18 103.58 16.19Q104.64 15.19 105.67 13.39L105.67 13.39L105.91 13.63Q105.41 14.90 104.62 15.90Q103.82 16.90 102.91 17.45Q102.00 18 101.16 18L101.16 18Q100.32 18 99.88 17.51Q99.43 17.02 99.43 16.32L99.43 16.32Q99.43 16.01 99.50 15.62L99.50 15.62Q98.42 17.06 97.57 17.74Q96.72 18.41 95.88 18.41L95.88 18.41ZM112.94 17.76Q112.13 17.76 111.70 17.34Q111.26 16.92 111.26 16.22L111.26 16.22Q111.26 15.91 111.37 15.49Q111.48 15.07 111.60 14.66L111.60 14.66Q111.74 14.23 111.85 13.75Q111.96 13.27 111.96 12.89L111.96 12.89Q111.96 11.71 111 11.71L111 11.71Q110.09 11.71 109.09 12.67Q108.10 13.63 107.32 14.81Q106.54 15.98 105.55 17.64L105.55 17.64Q105.14 17.64 104.81 17.51Q104.47 17.38 104.28 17.11L104.28 17.11Q104.28 16.99 104.59 16.25L104.59 16.25Q105.19 14.71 105.58 13.45Q105.96 12.19 105.98 11.21L105.98 11.21Q106.15 11.02 106.46 10.86Q106.78 10.70 107.09 10.70L107.09 10.70Q107.74 10.70 107.74 11.33L107.74 11.33Q107.74 11.69 107.52 12.59Q107.30 13.49 106.97 14.50L106.97 14.50Q108.12 12.72 109.42 11.50Q110.71 10.27 111.96 10.27L111.96 10.27Q112.85 10.27 113.29 10.91Q113.74 11.54 113.74 12.43L113.74 12.43Q113.74 12.96 113.60 13.44Q113.47 13.92 113.21 14.54L113.21 14.54Q112.99 15.07 112.87 15.46Q112.75 15.84 112.75 16.22L112.75 16.22Q112.75 17.14 113.47 17.14L113.47 17.14Q114.29 17.14 115.16 16.06Q116.04 14.98 116.83 13.39L116.83 13.39L117.10 13.70Q115.37 17.76 112.94 17.76L112.94 17.76ZM117.79 18Q117.10 18 116.54 17.48Q115.99 16.97 115.99 15.98L115.99 15.98Q115.99 14.66 117 12.90Q118.01 11.14 119.52 9.89Q121.03 8.64 122.45 8.64L122.45 8.64Q123.50 8.64 123.50 9.38L123.50 9.38Q123.50 9.48 123.46 9.72L123.46 9.72Q123.22 9.36 122.54 9.36L122.54 9.36Q121.34 9.36 120.22 10.50Q119.09 11.64 118.38 13.18Q117.67 14.71 117.67 15.70L117.67 15.70Q117.67 16.22 117.90 16.54Q118.13 16.85 118.54 16.85L118.54 16.85Q119.18 16.85 120.12 16.02Q121.06 15.19 122.02 13.68Q122.98 12.17 123.72 10.25L123.72 10.25Q125.59 5.40 126.85 2.70Q128.11 0 128.98 0L128.98 0Q129.17 0 129.31 0.16Q129.46 0.31 129.46 0.55L129.46 0.55Q129.46 0.91 129.07 1.79Q128.69 2.66 127.82 4.49L127.82 4.49Q126.05 8.18 124.99 10.88Q123.94 13.58 123.94 15.60L123.94 15.60Q123.94 16.39 124.02 16.67Q124.10 16.94 124.49 16.94L124.49 16.94Q124.99 16.94 125.68 16.50Q126.36 16.06 127.03 15.25Q127.70 14.45 128.18 13.39L128.18 13.39L128.47 13.61Q128.02 14.81 127.22 15.79Q126.43 16.78 125.53 17.34Q124.63 17.90 123.82 17.90L123.82 17.90Q123 17.90 122.62 17.38Q122.23 16.85 122.23 16.10L122.23 16.10Q122.23 15.29 122.69 13.54L122.69 13.54Q121.46 15.55 120.16 16.78Q118.85 18 117.79 18L117.79 18ZM128.88 18.41Q128.09 18.41 127.60 17.89Q127.10 17.38 127.10 16.42L127.10 16.42Q127.10 15 128.12 13.25Q129.14 11.50 130.70 10.27Q132.26 9.05 133.75 9.05L133.75 9.05Q134.69 9.05 135.31 9.55Q135.94 10.06 135.94 10.85L135.94 10.85Q135.94 11.40 135.62 11.64Q135.31 11.88 134.76 11.88L134.76 11.88Q134.88 11.45 134.88 11.04L134.88 11.04Q134.88 10.44 134.59 10.07Q134.30 9.70 133.70 9.70L133.70 9.70Q132.65 9.70 131.48 10.87Q130.32 12.05 129.54 13.68Q128.76 15.31 128.76 16.49L128.76 16.49Q128.76 17.42 129.41 17.42L129.41 17.42Q130.37 17.42 131.66 15.90Q132.96 14.38 134.45 12.19L134.45 12.19Q134.76 12.24 135.08 12.40Q135.41 12.55 135.41 12.79L135.41 12.79Q135.41 12.98 135.18 13.40Q134.95 13.82 134.90 13.90L134.90 13.90Q134.50 14.59 134.26 15.13Q134.02 15.67 134.02 16.13L134.02 16.13Q134.02 16.54 134.22 16.86Q134.42 17.18 134.83 17.18L134.83 17.18Q135.53 17.18 136.58 16.19Q137.64 15.19 138.67 13.39L138.67 13.39L138.91 13.63Q138.41 14.90 137.62 15.90Q136.82 16.90 135.91 17.45Q135 18 134.16 18L134.16 18Q133.32 18 132.88 17.51Q132.43 17.02 132.43 16.32L132.43 16.32Q132.43 16.01 132.50 15.62L132.50 15.62Q131.42 17.06 130.57 17.74Q129.72 18.41 128.88 18.41L128.88 18.41Z" transform="translate(36, 8.316)"></path></svg>